<svg width="950" height="173" viewBox="0 0 950 173" fill="none" xmlns="http://www.w3.org/2000/svg">
<path d="M224.049 22.7333H186.804L150.29 124.828H173.221L179.355 108.031H231.498L237.486 124.828H260.564L224.049 22.7333ZM186.512 87.7291L202.579 42.8893H208.275L224.195 87.7291H186.512ZM302.36 75.1681L300.461 75.022C286.148 72.8312 283.665 70.7863 283.665 67.1349C283.665 64.6519 286.294 60.1241 298.709 60.1241C311.562 60.1241 317.112 63.6295 317.112 70.0561V70.7863H339.751V70.0561C339.751 57.4951 332.594 42.4511 298.709 42.4511C267.16 42.4511 260.588 56.0345 260.588 67.427C260.588 83.7855 275.193 89.0436 298.709 92.1108C299.877 92.2569 301.046 92.4029 302.214 92.549C311.124 93.5714 319.011 94.7398 319.011 100.874C319.011 106.278 310.539 107.447 301.63 107.447C286.878 107.447 281.62 104.234 281.62 97.2228V96.4925H258.835V98.0992C258.689 102.335 258.689 109.2 264.385 114.896C270.958 121.468 283.665 124.828 302.214 124.828C327.336 124.828 341.942 120.884 341.942 100.582C341.942 81.1565 320.909 77.9432 302.36 75.1681ZM376.572 61.8768H403.155V43.1814H376.572V19.52H354.225V43.1814H343.417V61.8768H354.225V94.7398C354.225 106.571 354.225 124.828 376.572 124.828C398.773 124.828 403.155 123.367 403.155 123.367V101.751C381.83 102.919 376.572 104.526 376.572 92.695V90.9423V61.8768ZM456.922 42.8893C442.755 42.8893 437.789 47.125 433.115 55.0121H431.8V42.8893H409.6V124.828H431.8V88.1672C431.8 77.0668 436.62 64.2137 453.125 64.2137C460.136 64.2137 465.832 65.3822 467.877 65.9664L471.382 45.0802C467.585 44.2038 462.765 42.8893 456.922 42.8893ZM539.138 55.0121C533.588 47.7092 524.386 42.8893 509.196 42.8893C474.581 42.8893 470.929 71.9548 470.929 83.9316C470.929 94.8859 474.727 124.828 509.05 124.828C524.532 124.828 533.88 120.592 539.43 113.435H540.161V124.828H562.361V42.8893H540.161V55.0121H539.138ZM515.623 105.84C494.444 105.84 492.107 89.7739 492.107 83.9316C492.107 77.505 494.298 62.0229 515.623 62.0229C534.756 62.0229 538.7 72.8312 538.7 83.9316C538.7 96.3465 534.756 105.84 515.623 105.84ZM570.491 22.5872V124.828H592.692V83.7855H654.475V63.7756H592.692V42.7432H657.542V22.5872H570.491ZM687.826 124.828V19.8122H665.771V124.828H687.826ZM740.296 41.4287C715.466 41.4287 694.726 55.0121 694.726 83.2013C694.726 111.536 715.466 124.828 740.296 124.828C765.272 124.828 786.012 111.975 786.012 83.2013C786.012 54.72 765.272 41.4287 740.296 41.4287ZM740.296 104.672C726.421 104.672 716.489 98.5373 716.489 83.2013C716.489 67.7191 726.421 61.7308 740.296 61.7308C754.318 61.7308 764.25 68.0112 764.25 83.2013C764.25 97.9531 754.318 104.672 740.296 104.672ZM901.487 42.8893L882.5 103.211L863.804 42.8893H842.188L823.638 103.211L804.651 42.8893H782.304L808.01 124.828H838.098L852.996 76.3365L868.04 124.828H898.128L923.834 42.8893H901.487Z" fill="black"/>
<path d="M704.904 127.633C715.509 136.408 744.003 148.85 773.136 128.423" stroke="black" stroke-width="12.046"/>
<path d="M19.575 78.6463C19.575 108.073 39.8333 128.331 68.9639 128.331C98.0944 128.331 118.353 108.073 118.353 78.6463C118.353 49.22 97.9465 29.1096 68.9639 29.1096C39.8333 29.1096 19.575 49.22 19.575 78.6463ZM31.8483 78.6463C31.8483 56.1699 47.2269 40.3478 68.9639 40.3478C90.553 40.3478 105.932 56.1699 105.932 78.6463C105.932 101.27 90.7009 117.093 68.9639 117.093C47.2269 117.093 31.8483 101.27 31.8483 78.6463Z" fill="black"/>
<path d="M133.794 71.3143C116.317 75.8758 92.6135 81.2032 67.8972 81.2032C43.181 81.2032 19.477 75.8758 2 71.3143" stroke="black" stroke-width="12.2048"/>
</svg>
