<svg width="100" height="101" viewBox="0 0 100 101" fill="none" xmlns="http://www.w3.org/2000/svg">
<path d="M77.7314 100.933L16.0468 96.8447C6.62525 96.3114 -0.663129 88.1342 0.0479321 78.5348L3.95877 17.028C4.49207 7.60645 12.6693 0.318072 22.2686 1.02913L83.9532 4.93997C93.3747 5.47327 100.663 13.6505 99.9521 23.2498L95.8635 84.7566C95.3302 94.356 87.153 101.467 77.7314 100.933Z" fill="#1A1832"/>
<path d="M80.5758 8.67317L78.9759 10.2731C78.4426 10.8064 77.5538 10.8064 77.0205 10.2731L75.4206 8.67317C74.8873 8.13987 73.9985 8.13987 73.4652 8.67317C72.9319 9.20646 72.9319 10.0953 73.4652 10.6286L75.065 12.2285C75.5983 12.7618 75.5983 13.6506 75.065 14.1839L73.4652 15.7838C72.9319 16.3171 72.9319 17.2059 73.4652 17.7392C73.9985 18.2725 74.8873 18.2725 75.4206 17.7392L77.0205 16.1393C77.5538 15.606 78.4426 15.606 78.9759 16.1393L80.5758 17.7392C81.1091 18.2725 81.9979 18.2725 82.5312 17.7392C83.0645 17.2059 83.0645 16.3171 82.5312 15.7838L80.9313 14.1839C80.398 13.6506 80.398 12.7618 80.9313 12.2285L82.5312 10.6286C83.0645 10.0953 83.0645 9.20646 82.5312 8.67317C81.9979 8.13987 81.1091 8.13987 80.5758 8.67317Z" fill="#3E3F73"/>
<g opacity="0.45">
<path opacity="0.45" d="M18.3578 14.717C15.6913 14.717 13.5581 16.8502 13.5581 19.5167C13.5581 22.1832 15.6913 24.3164 18.3578 24.3164C21.0243 24.3164 23.1574 22.1832 23.1574 19.5167C23.1574 16.8502 21.0243 14.717 18.3578 14.717ZM18.3578 22.0054C16.9356 22.0054 15.6913 20.7611 15.6913 19.3389C15.6913 17.9168 16.9356 16.6725 18.3578 16.6725C19.7799 16.6725 21.0243 17.9168 21.0243 19.3389C21.0243 20.7611 19.7799 22.0054 18.3578 22.0054Z" fill="#E7D5E9"/>
</g>
<path d="M77.9091 89.734C79.8726 89.734 81.4644 88.1423 81.4644 86.1787C81.4644 84.2152 79.8726 82.6234 77.9091 82.6234C75.9455 82.6234 74.3538 84.2152 74.3538 86.1787C74.3538 88.1423 75.9455 89.734 77.9091 89.734Z" fill="#E7D5E9"/>
<path d="M49.8225 52.0478C55.511 52.5811 60.6662 48.3147 61.1995 42.4485C61.7328 36.76 57.4665 31.6048 51.6002 31.0715C45.9117 30.5382 40.7565 34.8046 40.2232 40.6708C39.8677 46.3593 44.134 51.5145 49.8225 52.0478Z" fill="#E5D6E9"/>
<path d="M56.9329 58.0919C47.3335 53.2922 35.9566 56.492 30.0903 65.0247C29.2015 66.2691 29.3792 68.0467 30.6236 69.1133C35.2455 73.5574 41.1118 76.2239 47.5113 76.7572C53.9109 77.2905 60.3104 75.6906 65.4656 72.1353C66.71 71.2465 67.2433 69.6466 66.5322 68.2245C64.5768 63.9581 61.1992 60.225 56.9329 58.0919Z" fill="#E5D6E9"/>
<path d="M15.3355 58.5379C14.98 58.5379 14.6244 58.3601 14.4467 58.0046C14.2689 57.649 14.0912 57.4713 14.0912 57.1157L14.2689 55.6936L13.2023 54.8048C13.0246 54.627 12.8468 54.4493 12.8468 54.0938C12.8468 53.7382 12.8468 53.3827 13.0246 53.0271C13.2023 52.6716 13.5578 52.4939 13.9134 52.4939L15.3355 52.1383L15.8688 50.7162C16.0466 50.1829 16.5799 50.0052 16.9354 49.8274C17.4687 49.8274 17.8242 50.0051 18.1798 50.3607L18.8908 51.605L20.3129 51.7828C20.6685 51.7828 20.8462 51.9606 21.024 52.1383C21.2018 52.3161 21.3795 52.6716 21.5573 53.0271C21.5573 53.3827 21.5573 53.7382 21.2018 54.0938L20.3129 55.1604L20.6685 56.5825C20.6685 56.7602 20.6685 57.1158 20.6685 57.4713C20.4907 58.0046 19.9574 58.3601 19.4241 58.3601H19.2463L18.8908 58.1823L17.4687 57.6491L16.2243 58.3601C16.0466 58.5379 15.691 58.5379 15.3355 58.5379Z" fill="#E5D6E9"/>
<path d="M16.7578 50.8939C16.9356 50.8939 16.9356 50.8939 17.1133 51.0716L18.1799 52.6715L20.1353 52.8493H20.3131C20.4909 53.027 20.4909 53.2048 20.3131 53.3826L19.0688 54.8047L19.6021 56.7601V56.9379C19.6021 57.1157 19.4243 57.1156 19.2465 57.1156C19.2465 57.1156 19.2465 57.1156 19.0688 57.1156L17.2911 56.4046L15.6912 57.4712H15.5134C15.3357 57.4712 15.1579 57.2934 15.1579 57.1156L15.3357 55.1603L13.9135 53.9159L13.7358 53.7381C13.7358 53.5603 13.7358 53.3826 13.9135 53.3826L15.869 52.8493L16.58 51.0716C16.58 50.8939 16.7578 50.8939 16.7578 50.8939ZM16.7578 48.9385H16.58C15.6912 48.9385 14.9801 49.6495 14.6246 50.3606L14.2691 51.2494L13.3803 51.4272C12.1359 51.7827 11.4248 53.0271 11.7804 54.2714C11.9581 54.8047 12.1359 55.1602 12.4914 55.5158L13.2025 56.0491V56.9379C13.2025 57.4712 13.3803 58.1823 13.7358 58.5378C14.0913 59.0711 14.8024 59.2488 15.3357 59.2488C15.6912 59.2488 16.2245 59.0711 16.58 58.8933L17.4688 58.36L18.3577 58.7156C18.7132 58.8933 18.891 58.8933 19.2465 58.8933C20.1353 58.8933 21.0242 58.36 21.3797 57.4712C21.5575 56.9379 21.5575 56.5824 21.5575 56.0491L21.3797 55.1603L21.913 54.4492C22.8018 53.3826 22.624 51.9605 21.5575 51.2494C21.2019 50.8939 20.6686 50.7161 20.1353 50.7161H19.2465L18.7132 49.8273C18.3577 49.294 17.6466 48.9385 16.7578 48.9385Z" fill="#1A1832"/>
<path d="M87.1529 51.0717C86.6196 51.0717 85.9086 50.894 85.3753 50.7162L83.0643 49.6496L80.7534 50.7162C80.2201 51.0718 79.509 51.0717 78.9757 51.0717H78.7979H78.4424C77.3758 50.894 76.487 50.3607 75.9537 49.4718C75.4204 48.583 75.0649 47.6942 75.2426 46.6276L75.5982 44.1389L73.8205 42.3612C73.2872 41.8279 72.9317 40.9391 72.7539 40.228C72.5762 39.1614 72.7539 38.2726 73.465 37.3838C73.9983 36.495 74.8871 35.9617 75.9537 35.7839L78.4424 35.4284L79.6868 33.1174C80.3978 31.873 81.6422 30.9843 83.0643 30.9843C84.4865 30.9843 85.9086 31.873 86.4419 33.1174L87.5085 35.4284L89.9972 35.7839C90.886 35.9617 91.5971 36.3172 92.1304 36.8505C92.8414 37.5616 93.197 38.6281 93.197 39.517C93.197 40.5836 92.8414 41.4724 92.1304 42.1834L90.3527 43.9611L90.7083 46.4498C90.886 47.1609 90.7082 48.0497 90.3527 48.7608C89.9972 50.1829 88.5751 51.0717 87.1529 51.0717Z" fill="#E5D6E9"/>
<path d="M83.0644 34.1839C83.4199 34.1839 83.5977 34.3617 83.7755 34.5394L85.7309 38.2725L89.8195 38.9836C89.9973 38.9836 90.175 39.1613 90.175 39.1613C90.5306 39.5169 90.5306 39.8723 90.175 40.2279L87.3308 43.0721L88.0418 47.1608C88.0418 47.3385 88.0418 47.5163 88.0418 47.5163C87.8641 47.694 87.6863 47.8718 87.3308 47.8718C87.153 47.8718 87.153 47.8718 86.9752 47.8718L83.2422 45.9164L79.5091 47.8718C79.3313 47.8718 79.3313 47.8718 79.1536 47.8718C79.1536 47.8718 79.1536 47.8718 78.9758 47.8718C78.6203 47.8718 78.2647 47.5163 78.4425 46.983L79.1536 42.8944L76.3093 39.8724C76.1316 39.6946 76.1315 39.6946 76.1315 39.5168C76.1315 39.1613 76.3093 38.8058 76.6648 38.628L80.7535 37.9169L82.7089 34.1839C82.5311 34.1839 82.8866 34.1839 83.0644 34.1839ZM83.0644 27.7843C80.3979 27.7843 78.087 29.2064 76.8426 31.6952L76.4871 32.584L75.5983 32.7618C73.8206 33.1173 72.0429 34.0061 70.9764 35.606C69.9098 37.2059 69.3765 38.9836 69.732 40.7612C69.9098 42.1833 70.6208 43.6054 71.6874 44.672L72.3985 45.3831L72.2207 46.2719C71.6874 50.005 74.1761 53.7381 78.087 54.2714C78.4425 54.2714 78.798 54.4491 79.1536 54.4491C80.2202 54.4491 81.2867 54.2714 82.3533 53.7381L83.2422 53.3826L84.131 53.7381C85.1976 54.2714 86.2642 54.4491 87.3308 54.4491C89.9972 54.4491 92.3082 53.027 93.5526 50.5383C94.2636 49.2939 94.4414 47.6941 94.2636 46.2719L94.0859 45.3831L94.7969 44.672C97.4634 42.0055 97.4634 37.5614 94.7969 34.7172C93.7303 33.6506 92.486 32.9395 90.8861 32.7618L89.9972 32.584L89.6417 31.6952C88.2196 29.3842 85.9087 27.7843 83.0644 27.7843Z" fill="#1A1832"/>
<path d="M63.6882 70.5355C66.3547 69.1134 60.4884 58.803 51.6002 58.803C48.5781 58.803 51.7779 64.847 55.1555 67.6912C58.533 70.7133 61.1995 71.6021 63.6882 70.5355Z" fill="white"/>
<path d="M51.2444 33.2047C53.022 32.8492 61.5547 36.4045 58.7105 44.7594C57.2884 48.8481 58.7105 42.6263 55.6885 38.7154C52.6665 34.8046 48.4001 33.9158 51.2444 33.2047Z" fill="white"/>
<path d="M18.7133 61.1139C20.4909 66.2691 23.6907 70.891 27.7793 74.6241C38.623 84.4012 54.6219 85.8233 67.0655 78.1794C76.3093 72.4909 81.82 62.8915 82.5311 52.9367M77.1981 31.7826C71.6874 23.6054 62.6213 18.2724 52.8442 17.2058C34.7122 15.606 18.7133 28.9384 17.1134 47.0704" stroke="#E5D6E9" stroke-width="3.71547" stroke-miterlimit="10" stroke-linecap="round" stroke-linejoin="round"/>
<path opacity="0.35" d="M24.224 45.6483C24.224 45.6483 26.0017 34.4491 35.7787 28.405" stroke="#E5D6E9" stroke-width="3.71547" stroke-miterlimit="10" stroke-linecap="round" stroke-linejoin="round"/>
<path opacity="0.35" d="M14.6249 81.2013C14.6249 81.2013 16.9358 86.712 23.8687 87.4231" stroke="#E5D6E9" stroke-width="3.43994" stroke-miterlimit="10" stroke-linecap="round" stroke-linejoin="round"/>
</svg>
