<svg width="101" height="101" viewBox="0 0 101 101" fill="none" xmlns="http://www.w3.org/2000/svg">
<path d="M77.7974 99.9999L16.1633 95.9147C6.74947 95.3818 -0.532948 87.2113 0.177532 77.6198L4.08517 16.1633C4.61803 6.74947 12.7885 -0.532948 22.38 0.177532L84.0141 4.08517C93.428 4.61803 100.71 12.7885 99.9999 22.38L95.9147 83.8365C95.3818 93.428 87.2113 100.533 77.7974 99.9999Z" fill="#1A1832"/>
<path d="M73.666 79.7512C76.4127 79.7512 78.6393 77.5245 78.6393 74.7778C78.6393 72.0311 76.4127 69.8044 73.666 69.8044C70.9193 69.8044 68.6926 72.0311 68.6926 74.7778C68.6926 77.5245 70.9193 79.7512 73.666 79.7512Z" fill="#E7D5E9"/>
<path d="M21.801 66.2521C22.7819 66.2521 23.5772 65.4569 23.5772 64.4759C23.5772 63.4949 22.7819 62.6997 21.801 62.6997C20.82 62.6997 20.0248 63.4949 20.0248 64.4759C20.0248 65.4569 20.82 66.2521 21.801 66.2521Z" fill="#B694C4"/>
<path d="M80.6393 7.81517L79.0407 9.41375C78.5079 9.94661 77.6198 9.94661 77.0869 9.41375L75.4883 7.81517C74.9555 7.28231 74.0674 7.28231 73.5345 7.81517C73.0017 8.34803 73.0017 9.23613 73.5345 9.76899L75.1331 11.3676C75.666 11.9004 75.666 12.7885 75.1331 13.3214L73.5345 14.92C73.0017 15.4528 73.0017 16.3409 73.5345 16.8738C74.0674 17.4066 74.9555 17.4066 75.4883 16.8738L77.0869 15.2752C77.6198 14.7423 78.5079 14.7423 79.0407 15.2752L80.6393 16.8738C81.1722 17.4066 82.0603 17.4066 82.5931 16.8738C83.126 16.3409 83.126 15.4528 82.5931 14.92L80.9946 13.3214C80.4617 12.7885 80.4617 11.9004 80.9946 11.3676L82.5931 9.76899C83.126 9.23613 83.126 8.34803 82.5931 7.81517C82.0603 7.28231 81.1722 7.28231 80.6393 7.81517Z" fill="#3E3F73"/>
<g opacity="0.75">
<path opacity="0.75" d="M18.4724 13.8542C15.8081 13.8542 13.6766 15.9857 13.6766 18.65C13.6766 21.3143 15.8081 23.4457 18.4724 23.4457C21.1367 23.4457 23.2681 21.3143 23.2681 18.65C23.2681 15.9857 21.1367 13.8542 18.4724 13.8542ZM18.4724 21.1367C17.0514 21.1367 15.8081 19.8933 15.8081 18.4724C15.8081 17.0514 17.0514 15.8081 18.4724 15.8081C19.8933 15.8081 21.1367 17.0514 21.1367 18.4724C21.1367 19.8933 19.8933 21.1367 18.4724 21.1367Z" fill="#E7D5E9"/>
</g>
<path d="M77.396 30.5506C74.1989 27.1759 69.936 25.3997 65.3179 25.3997C61.7655 25.3997 58.7459 26.4654 55.904 28.5968C54.4831 29.6625 53.2397 31.0835 52.174 32.5045C51.1083 30.9059 49.6873 29.6625 48.444 28.5968C45.6021 26.4654 42.4049 25.3997 39.0301 25.3997C34.412 25.3997 30.1491 27.1759 26.952 30.5506C23.9324 33.9254 22.1562 38.3659 22.1562 43.3393C22.1562 48.4902 24.1101 53.1084 28.1953 57.9041C31.7477 62.3446 37.0763 66.7851 43.1154 71.9361C45.2468 73.7123 47.5559 75.6661 50.0426 77.7975C50.753 78.3304 51.4635 78.6856 52.3516 78.6856C53.2397 78.6856 53.9502 78.3304 54.6607 77.7975C57.1474 75.6661 59.4564 73.7123 61.5879 71.9361C67.6269 66.7851 72.9555 62.3446 76.5079 57.9041C80.5932 52.9307 82.547 48.3126 82.547 43.3393C82.1918 38.3659 80.5932 33.9254 77.396 30.5506Z" fill="#E5D6E9"/>
<path d="M67.0941 30.3728C69.4032 30.1952 71.8898 31.2609 73.666 32.8595C75.6199 34.4581 76.6856 36.7671 77.3961 39.0762C77.9289 41.3852 77.9289 43.6943 77.5737 46.0034C77.2184 48.1348 76.3303 50.2662 75.2646 52.0424C74.9094 52.5753 74.1989 52.7529 73.4884 52.3977C73.1332 52.2201 72.7779 51.6872 72.9556 51.332V51.1543C73.1332 49.2005 73.3108 47.2467 73.3108 45.4705C73.3108 43.6943 73.1332 41.9181 72.6003 40.4971C72.0675 38.8986 71.357 37.6552 70.4689 36.4119C69.5808 35.1686 68.3374 34.1028 66.7389 32.8595H66.5612C66.0284 32.5043 65.8508 31.6162 66.3836 31.0833C66.3836 30.5504 66.7389 30.3728 67.0941 30.3728Z" fill="white"/>
<path d="M54.8383 72.4688C46.1349 71.9359 20.2024 51.5097 26.4191 31.261C23.7548 34.4581 22.1562 38.721 22.1562 43.3391C22.1562 48.4901 24.1101 53.1082 28.1953 57.904C31.7477 62.3445 37.0763 66.785 43.1154 71.9359C45.2468 73.7121 47.5559 75.666 50.0426 77.7974C50.753 78.3303 51.4635 78.6855 52.3516 78.6855C53.2397 78.6855 53.9502 78.3303 54.6607 77.7974C57.1474 75.666 59.4564 73.7121 61.5879 71.9359C61.7655 71.7583 62.1207 71.5807 62.2983 71.4031C59.8117 72.1136 57.325 72.6464 54.8383 72.4688Z" fill="#B694C4"/>
<path d="M49.6873 32.682C51.4635 35.1686 54.1278 35.8791 56.0816 33.5701C59.1012 29.84 63.364 26.11 67.6269 25.3995C66.9164 25.3995 66.3836 25.2219 65.6731 25.2219H65.4955C62.1207 25.2219 58.9235 26.2876 56.0816 28.4191C55.3711 28.9519 54.8383 29.4848 54.1278 30.0177C53.0621 31.0834 51.2859 31.0834 50.2202 30.0177C49.6873 29.4848 48.9768 28.7743 48.2664 28.4191C45.7797 26.4653 42.7601 25.3995 39.7406 25.2219C46.1349 27.1757 47.5559 29.84 49.6873 32.682Z" fill="#B694C4"/>
<path d="M73.6659 69.8045C69.0478 69.8045 68.6926 66.6073 70.824 63.5878C72.9555 60.7459 59.2787 73.7121 63.0088 70.515C66.9164 67.1402 69.4031 70.8702 68.6926 74.7778" fill="#E7D5E9"/>
<path d="M24.4653 52.7529C27.4849 56.6606 22.3339 60.0353 24.8206 62.3444C27.4849 64.6535 30.5044 60.5682 33.3463 63.5877" fill="#B694C4"/>
<path d="M35.3 36.9448C31.2148 43.3391 35.6553 57.7263 47.3782 60.3906C53.4173 61.8116 45.2467 56.483 41.1615 49.2006C37.2539 42.451 37.4315 33.57 35.3 36.9448Z" fill="white"/>
</svg>
