<svg width="100" height="100" viewBox="0 0 100 100" fill="none" xmlns="http://www.w3.org/2000/svg">
<path d="M77.7314 99.9719L16.0468 95.8825C6.62525 95.3491 -0.663129 87.1702 0.0479321 77.569L3.95877 16.05C4.49207 6.62656 12.6693 -0.663261 22.2686 0.0479416L83.9532 3.95955C93.3747 4.49296 100.663 12.6718 99.9521 22.273L95.8635 83.792C95.3302 93.3932 87.153 100.505 77.7314 99.9719Z" fill="#1A1832"/>
<path d="M80.398 92.5042C82.3615 92.5042 83.9533 90.9121 83.9533 88.9482C83.9533 86.9843 82.3615 85.3922 80.398 85.3922C78.4344 85.3922 76.8427 86.9843 76.8427 88.9482C76.8427 90.9121 78.4344 92.5042 80.398 92.5042Z" fill="#E7D5E9"/>
<path d="M80.5755 7.69333L78.9756 9.29353C78.4423 9.82693 77.5535 9.82693 77.0202 9.29353L75.4203 7.69333C74.887 7.15992 73.9982 7.15992 73.4649 7.69333C72.9316 8.22673 72.9316 9.11573 73.4649 9.64913L75.0648 11.2493C75.5981 11.7827 75.5981 12.6717 75.0648 13.2051L73.4649 14.8053C72.9316 15.3387 72.9316 16.2278 73.4649 16.7612C73.9982 17.2946 74.887 17.2946 75.4203 16.7612L77.0202 15.161C77.5535 14.6275 78.4423 14.6275 78.9756 15.161L80.5755 16.7612C81.1088 17.2946 81.9976 17.2946 82.5309 16.7612C83.0642 16.2278 83.0642 15.3387 82.5309 14.8053L80.9311 13.2051C80.3978 12.6717 80.3978 11.7827 80.9311 11.2493L82.5309 9.64913C83.0642 9.11573 83.0642 8.22673 82.5309 7.69333C81.9976 7.15992 81.1088 7.15992 80.5755 7.69333Z" fill="#3E3F73"/>
<g opacity="0.75">
<path opacity="0.75" d="M18.3578 13.7386C15.6913 13.7386 13.5581 15.8722 13.5581 18.5392C13.5581 21.2062 15.6913 23.3398 18.3578 23.3398C21.0242 23.3398 23.1574 21.2062 23.1574 18.5392C23.1574 15.8722 21.0242 13.7386 18.3578 13.7386ZM18.3578 21.0284C16.9356 21.0284 15.6913 19.7838 15.6913 18.3614C15.6913 16.939 16.9356 15.6944 18.3578 15.6944C19.7799 15.6944 21.0242 16.939 21.0242 18.3614C21.0242 19.7838 19.7799 21.0284 18.3578 21.0284Z" fill="#E7D5E9"/>
</g>
<path d="M83.4199 58.1888C82.3533 56.5886 80.5757 55.6996 78.798 55.6996C76.4871 55.6996 74.5316 57.122 73.6428 59.0778C70.0875 67.6122 61.7325 73.6575 51.7777 73.6575C46.4447 73.6575 41.4673 71.8795 37.3787 68.679L40.5784 68.1456C41.645 67.9678 42.5339 67.0788 42.5339 66.012C42.7116 64.9452 42.1783 63.8784 41.1117 63.5228L24.0463 55.8774C23.3352 55.5218 22.4464 55.5218 21.7353 56.0552C21.0243 56.5886 20.6687 57.2998 20.6687 58.011L20.491 76.8579C20.491 77.9247 21.202 78.8137 22.2686 79.1693C23.3352 79.5249 24.4018 79.1693 24.9351 78.1025L27.246 74.5465C33.4678 80.7695 42.1783 84.5033 51.5999 84.5033C65.9989 84.5033 78.4425 75.6133 83.7754 63.1672C84.6643 61.7448 84.4865 59.789 83.4199 58.1888Z" fill="#E5D6E9"/>
<path d="M24.9351 44.1424C27.2461 44.1424 29.2015 42.72 30.0903 40.7642C33.6456 32.2297 42.0006 26.1845 51.9554 26.1845C57.2884 26.1845 62.2658 27.9625 66.3544 31.1629L63.1547 31.6963C62.0881 31.8741 61.1992 32.7631 61.1992 33.8299C61.0215 34.8967 61.5548 35.9635 62.6214 36.3191L79.6869 43.9646C80.3979 44.3202 81.2867 44.3202 81.9978 43.7868C82.7089 43.2534 83.0644 42.5422 83.0644 41.831V22.9841C83.0644 21.9173 82.3533 21.0283 81.2867 20.6727C80.2201 20.3171 79.1535 20.6727 78.6203 21.7395L76.3093 25.2955C70.0875 19.0725 61.377 15.3387 51.9554 15.3387C37.5564 15.3387 25.1129 24.2287 19.7799 36.6748C19.0688 38.4528 19.2466 40.4086 20.3132 42.0088C21.202 43.2534 22.9797 44.1424 24.9351 44.1424Z" fill="#E5D6E9"/>
<path d="M66.8876 35.7858C63.6879 34.1856 67.7765 32.941 68.843 32.7632C69.9096 32.5854 67.9542 27.9625 61.0214 25.2955C53.9108 22.4507 42.5338 26.1845 37.9119 30.9852C41.8227 28.1403 46.6224 26.3623 51.9553 26.3623C57.2883 26.3623 62.2657 28.1403 66.3543 31.3408L63.1546 31.8742C62.088 32.052 61.1991 32.941 61.1991 34.0078C61.0214 35.0746 61.5547 36.1414 62.6213 36.497L79.1534 43.9646C79.3312 41.4754 70.0874 37.386 66.8876 35.7858Z" fill="#B694C4"/>
<path d="M48.2223 16.9389C50.5333 16.7611 52.8442 16.7611 54.9774 17.1167C57.2883 17.4723 59.4215 17.8279 61.7325 18.5391C63.8657 19.2503 65.9988 20.1393 68.132 21.2061C70.2652 22.2729 72.0429 23.6953 73.6428 25.4733C73.9983 25.8289 73.9983 26.3623 73.6428 26.7179C73.2872 27.0735 72.9317 27.0735 72.5762 26.8957C70.7985 25.8289 69.0209 24.5843 67.0654 23.5175C65.2878 22.4507 63.3324 21.5617 61.1992 21.0283C59.2438 20.3171 57.1106 19.7837 54.9774 19.4281C52.8442 19.0725 50.711 18.8947 48.5778 18.8947C48.0445 18.8947 47.689 18.5391 47.689 18.0057C47.5112 17.4723 47.8668 16.9389 48.2223 16.9389Z" fill="white"/>
<path d="M81.109 39.8752C81.8201 39.164 82.1756 22.6285 80.9312 22.6285C79.6869 22.6285 79.3313 26.1846 79.5091 27.9626C79.6869 29.7406 80.3979 40.5864 81.109 39.8752Z" fill="white"/>
<path d="M20.1354 41.6532C21.202 43.2534 22.9797 44.1424 24.7573 44.1424C27.0683 44.1424 29.0237 42.72 29.9125 40.7642C30.268 39.8752 30.8013 38.8083 31.3346 37.9193C28.4904 40.942 23.3352 43.0756 19.4244 36.8525C19.0688 38.4527 19.2466 40.2308 20.1354 41.6532Z" fill="#B694C4"/>
<path d="M36.6678 64.0562C39.8676 65.6564 35.779 66.901 34.7124 67.0788C33.6458 67.2566 35.6012 71.8794 42.534 74.5464C49.6447 77.3913 61.0216 73.6574 65.6435 68.8568C61.7327 71.7016 56.933 73.4796 51.6001 73.4796C46.2671 73.4796 41.2897 71.7016 37.2011 68.5012L40.4009 67.9678C41.4675 67.79 42.3563 66.901 42.3563 65.8342C42.534 64.7674 42.0008 63.7006 40.9342 63.345L24.402 55.8774C24.402 58.3666 33.468 62.456 36.6678 64.0562Z" fill="#B694C4"/>
<path d="M22.4464 59.9667C21.7354 60.6779 21.3798 77.2134 22.6242 77.2134C23.8686 77.2134 24.2241 73.6574 24.0463 71.8794C23.8686 69.9236 23.1575 59.0777 22.4464 59.9667Z" fill="white"/>
<path d="M83.4198 58.1888C82.3532 56.5886 80.5755 55.6996 78.7979 55.6996C76.4869 55.6996 74.5315 57.122 73.6427 59.0778C73.2872 59.9668 72.7539 61.0336 72.2206 61.9226C75.0648 58.9 80.22 56.7664 84.1308 62.9894C84.4864 61.3892 84.3086 59.6112 83.4198 58.1888Z" fill="#B694C4"/>
<path d="M25.023 28.0928C26.9784 25.9592 20.0456 30.4042 20.7566 27.3816C21.4677 24.359 35.8667 18.3138 40.3108 17.4248" fill="#E7D5E9"/>
<path d="M73.2874 82.5474C72.7541 79.347 78.7981 79.7026 83.7755 69.2124C84.8421 67.0788 83.9533 71.8794 81.6423 76.5022C79.3314 81.3028 73.8206 85.9256 73.2874 82.5474Z" fill="#3E3F73"/>
<path d="M43.9561 83.5911C52.6812 86.0046 66.9263 85.6333 69.5972 83.5911C72.2682 81.5489 65.3237 82.1058 68.5288 80.0637" fill="#E7D5E9"/>
<path d="M16.758 64.0561C18.5356 63.3449 12.6694 72.9462 19.2467 81.3028C22.4464 85.57 14.9803 81.3028 14.2692 77.0356C13.0249 70.1014 12.1361 76.3244 11.6028 77.0356C10.8917 77.9246 10.5362 66.3675 16.758 64.0561Z" fill="#3E3F73"/>
<path d="M84.3086 46.0982C82.3532 46.276 90.3526 38.6306 86.0863 28.6738C83.9531 23.8732 90.1749 29.7406 89.9971 34.0078C89.6416 41.1198 91.9525 35.2524 92.6636 34.719C93.3746 34.1856 91.0637 45.387 84.3086 46.0982Z" fill="#3E3F73"/>
<path d="M55.333 82.903C53.022 83.0808 50.7111 83.0808 48.5779 82.7252C46.2669 82.3696 44.1338 82.014 41.8228 81.3028C39.6896 80.5916 37.5564 79.7026 35.4233 78.6358C33.2901 77.569 31.5124 76.1466 29.9125 74.3685C29.557 74.0129 29.557 73.4795 29.9125 73.1239C30.2681 72.7683 30.6236 72.7683 30.9791 72.9461C32.7568 74.0129 34.5344 75.2575 36.4898 76.3243C38.2675 77.3912 40.2229 78.2802 42.3561 78.8136C44.3115 79.5248 46.4447 80.0582 48.5779 80.4138C50.7111 80.7694 52.8443 80.9472 54.9774 80.9472C55.5107 80.9472 55.8663 81.3028 55.8663 81.8362C56.044 82.3696 55.6885 82.903 55.333 82.903Z" fill="white"/>
</svg>
