<svg width="101" height="101" viewBox="0 0 101 101" fill="none" xmlns="http://www.w3.org/2000/svg">
<path d="M77.7974 99.9999L16.1633 95.9147C6.74944 95.3818 -0.532979 87.2113 0.177501 77.6198L4.08514 16.1633C4.618 6.74947 12.7885 -0.532948 22.38 0.177532L84.0141 4.08517C93.428 4.61803 100.71 12.7885 99.9999 22.38L95.9146 83.8365C95.3818 93.428 87.2113 100.533 77.7974 99.9999Z" fill="#1A1832"/>
<path d="M74.7777 87.5665C79.094 87.5665 82.593 84.0675 82.593 79.7513C82.593 75.435 79.094 71.936 74.7777 71.936C70.4615 71.936 66.9625 75.435 66.9625 79.7513C66.9625 84.0675 70.4615 87.5665 74.7777 87.5665Z" fill="#E7D5E9"/>
<path d="M24.3338 11.0123L22.0247 13.3214C21.1366 14.2095 19.8933 14.2095 19.0052 13.3214L16.8737 11.0123C15.9856 10.3019 14.7423 10.3019 13.8542 11.0123C12.9661 11.9004 12.9661 13.1438 13.8542 14.0319L16.1632 16.3409C17.0513 17.229 17.0513 18.4724 16.1632 19.3605L13.8542 21.6695C12.9661 22.5576 12.9661 23.801 13.8542 24.6891C14.7423 25.5772 15.9856 25.5772 16.8737 24.6891L19.1828 22.38C20.0709 21.4919 21.3142 21.4919 22.2023 22.38L24.5114 24.6891C25.3995 25.5772 26.6428 25.5772 27.5309 24.6891C28.419 23.801 28.419 22.5576 27.5309 21.6695L24.8666 19.1829C23.9785 18.2948 23.9785 17.0514 24.8666 16.1633L27.1757 13.8543C28.0638 12.9662 28.0638 11.7228 27.1757 10.8347C26.4652 10.3019 25.0442 10.3019 24.3338 11.0123Z" fill="#3E3F73"/>
<g opacity="0.75">
<path opacity="0.75" d="M74.7779 11.7229C71.4031 11.7229 68.7388 14.3872 68.7388 17.762C68.7388 21.1368 71.4031 23.8011 74.7779 23.8011C78.1527 23.8011 80.817 21.1368 80.817 17.762C80.6394 14.3872 77.9751 11.7229 74.7779 11.7229ZM74.7779 21.1368C72.8241 21.1368 71.4031 19.5382 71.4031 17.762C71.4031 15.9858 73.0017 14.3872 74.7779 14.3872C76.5541 14.3872 78.1527 15.8082 78.1527 17.762C78.1527 19.7158 76.5541 21.1368 74.7779 21.1368Z" fill="#E7D5E9"/>
</g>
<path d="M78.1526 41.7405L49.5558 81.705C48.1348 83.6588 45.2929 82.5931 45.2929 80.2841V54.5292C45.2929 53.2858 44.2272 52.2201 42.9838 52.2201H21.4918C19.538 52.2201 18.4723 50.0887 19.538 48.4901L48.1348 8.52562C49.5558 6.5718 52.3977 7.63752 52.3977 9.94658V35.7015C52.3977 36.9448 53.4634 38.0105 54.7067 38.0105H76.1988C78.1526 38.0105 79.2183 40.142 78.1526 41.7405Z" fill="#E5D6E9"/>
<path d="M52.5752 35.3463L52.3976 11.0124C52.3976 11.0124 45.4704 36.0568 49.9109 40.1421C54.3514 44.2273 76.1986 38.0106 76.1986 38.0106H55.2395C53.6409 38.0106 52.5752 36.9449 52.5752 35.3463Z" fill="white"/>
<path d="M45.2929 54.5292C45.2929 57.0159 45.2929 80.4617 45.2929 80.4617C45.2929 80.4617 48.8453 63.5878 48.8453 58.9697C48.8453 55.2397 48.8453 52.2202 42.9838 52.2202C44.76 52.2202 45.2929 53.9964 45.2929 54.5292Z" fill="#B694C4"/>
<path d="M45.8258 18.4724C44.0496 18.4724 33.9253 32.5043 33.9253 34.1029C33.9253 35.1686 41.2077 32.6819 42.8063 31.261C44.4049 29.6624 47.7796 18.4724 45.8258 18.4724Z" fill="white"/>
<path d="M41.7405 17.7619C41.9181 17.5843 41.9181 17.4067 41.9181 17.2291L19.538 48.4902C18.4723 50.0887 19.538 52.2202 21.4918 52.2202H32.5042C31.0833 52.2202 26.6428 51.5097 25.0442 47.7797C23.4456 44.0497 40.8524 19.3605 41.7405 17.7619Z" fill="#B694C4"/>
<path d="M82.0604 46.3587C78.8632 49.5559 66.785 65.7193 65.8969 67.8507C65.1865 69.9822 68.3836 71.2255 72.1136 65.7193C74.7779 61.8117 84.1918 44.2273 82.0604 46.3587Z" fill="#3E3F73"/>
<path d="M33.9256 59.8577C33.0375 59.1472 25.0446 65.3639 19.8936 69.8044C19.5383 70.1597 20.4264 67.673 19.1831 68.5611C16.6964 70.5149 16.5188 71.7582 15.6307 73.3568C14.3874 75.8435 14.0321 79.5735 14.9202 80.4616C15.8083 81.3497 19.0055 80.9945 21.3145 79.5735C22.9131 78.6854 25.9327 76.0211 27.5312 73.1792C28.2417 71.7582 24.1565 75.3106 25.9327 72.2911C29.4851 66.6073 34.8137 60.5682 33.9256 59.8577Z" fill="#3E3F73"/>
<path d="M13.1439 77.9749C12.7886 78.863 12.9662 79.7511 12.9662 80.4616C12.9662 80.8168 13.1439 81.3497 13.1439 81.7049C13.1439 81.8826 13.1439 82.0602 13.3215 82.2378C13.3215 82.4154 13.4991 82.593 13.3215 82.4154H13.1439H13.3215C13.4991 82.4154 13.6767 82.4154 13.8543 82.4154C14.2096 82.4154 14.7424 82.4154 15.0977 82.4154C15.9858 82.4154 16.6963 82.4154 17.5844 81.8825C17.2291 82.7706 16.1634 83.3035 15.2753 83.4811C14.7424 83.6588 14.3872 83.6588 13.8543 83.8364C13.6767 83.8364 13.3215 83.8364 13.1439 83.8364C12.9662 83.8364 12.9662 83.8364 12.7886 83.8364C12.611 83.8364 12.611 83.8364 12.4334 83.8364C12.2558 83.8364 12.0781 83.6587 12.0781 83.6587C11.7229 83.1259 11.7229 82.9483 11.7229 82.593C11.7229 82.4154 11.5453 82.0602 11.5453 81.8825C11.5453 81.3497 11.5453 80.9945 11.5453 80.4616C11.9005 79.3959 12.2558 78.3302 13.1439 77.9749Z" fill="#3E3F73"/>
<path d="M60.0353 38.0105C63.0548 38.0105 71.2253 26.9981 72.1134 28.5967C73.0015 30.1952 64.1205 36.9448 72.8239 38.0105" fill="#3E3F73"/>
</svg>
