<svg width="101" height="101" viewBox="0 0 101 101" fill="none" xmlns="http://www.w3.org/2000/svg">
<path d="M77.7975 99.9999L16.1634 95.9146C6.7495 95.3818 -0.532917 87.2113 0.177562 77.6198L4.0852 16.1633C4.61806 6.74947 12.7886 -0.532948 22.3801 0.177532L84.0142 4.08517C93.428 4.61803 100.71 12.7885 99.9999 22.38L95.9147 83.8365C95.3818 93.428 87.2113 100.533 77.7975 99.9999Z" fill="#1A1832"/>
<path d="M58.9698 92.5399C60.9317 92.5399 62.5222 90.9494 62.5222 88.9875C62.5222 87.0255 60.9317 85.4351 58.9698 85.4351C57.0078 85.4351 55.4174 87.0255 55.4174 88.9875C55.4174 90.9494 57.0078 92.5399 58.9698 92.5399Z" fill="#E7D5E9"/>
<g opacity="0.75">
<path opacity="0.75" d="M18.4724 13.8542C15.8081 13.8542 13.6767 15.9857 13.6767 18.65C13.6767 21.3143 15.8081 23.4457 18.4724 23.4457C21.1367 23.4457 23.2681 21.3143 23.2681 18.65C23.2681 15.9857 21.1367 13.8542 18.4724 13.8542ZM18.4724 21.1367C17.0514 21.1367 15.8081 19.8933 15.8081 18.4724C15.8081 17.0514 17.0514 15.8081 18.4724 15.8081C19.8934 15.8081 21.1367 17.0514 21.1367 18.4724C21.1367 19.8933 19.8934 21.1367 18.4724 21.1367Z" fill="#E7D5E9"/>
</g>
<path d="M19.8934 76.5541C23.801 75.666 23.6234 82.9484 36.0568 88.4546C38.5435 89.5203 32.8597 88.8098 27.3534 86.3232C21.8472 83.8365 16.1634 77.2645 19.8934 76.5541Z" fill="#3E3F73"/>
<path d="M28.5968 26.1102C30.7282 26.8207 18.1172 31.0836 17.762 43.8722C17.5844 50.2666 13.8544 40.6751 16.341 36.2346C20.4263 28.9522 14.9201 33.9255 13.8544 34.1031C12.7886 34.2808 20.9592 23.2683 28.5968 26.1102Z" fill="#3E3F73"/>
<path d="M66.6073 79.0409C64.4759 78.1528 77.2645 74.4228 78.1526 61.8118C78.6855 55.4175 81.8826 65.1866 79.2183 69.4494C74.9555 76.7319 80.6393 71.7585 81.705 71.5809C82.7707 71.4033 74.0674 82.0605 66.6073 79.0409Z" fill="#3E3F73"/>
<path d="M65.4349 14.9102L59.0296 8.50488L52.6243 14.9102L59.0296 21.3156L65.4349 14.9102Z" fill="#3E3F73"/>
<path d="M89.5203 42.6288L93.6055 44.9379L89.5203 47.247L87.2112 51.3322L84.9022 47.247L80.6393 44.9379L84.9022 42.6288L87.2112 38.366L89.5203 42.6288Z" fill="#E7D5E9"/>
<path d="M72.4688 39.2539L70.3373 41.3853C71.9359 44.4049 72.824 47.9573 72.824 51.5097C72.824 64.4759 62.3445 74.9555 49.3782 74.9555C36.5896 74.9555 25.9324 64.2983 25.9324 51.332C25.9324 38.3658 36.412 27.8862 49.3782 27.8862C53.1082 27.8862 56.483 28.7743 59.5025 30.1953L61.634 28.0638V25.3995C57.904 23.6233 53.6411 22.5576 49.3782 22.5576C33.57 22.5576 20.7814 35.3462 20.7814 51.1544C20.7814 66.9626 33.57 79.7512 49.3782 79.7512C65.1864 79.7512 77.975 67.3178 77.975 51.5097C77.975 47.0692 76.9093 42.9839 75.1331 39.2539H72.4688Z" fill="#E5D6E9"/>
<path d="M85.435 25.0444C85.0797 24.3339 84.3693 23.801 83.6588 23.801H77.0868V17.2291C77.0868 16.5186 76.554 15.8081 75.8435 15.4529C75.133 15.0976 74.2449 15.2753 73.7121 15.8081L67.1401 22.3801C66.7849 22.7353 66.6073 23.2682 66.6073 23.801V30.5506L52.2201 44.7602C51.332 44.2273 50.0886 44.0497 49.0229 44.0497C44.9376 44.0497 41.5629 47.4245 41.5629 51.5097C41.5629 55.595 44.9376 58.9698 49.0229 58.9698C53.1082 58.9698 56.8382 55.595 56.8382 51.5097C56.8382 50.2664 56.4829 49.3783 56.1277 48.3126L70.5149 34.103H77.2645C77.7973 34.103 78.3302 33.9254 78.6854 33.5701L85.2574 26.9982C85.6126 26.4653 85.7902 25.5772 85.435 25.0444Z" fill="#E5D6E9"/>
<path opacity="0.5" d="M49.3783 38.5436C49.9111 38.5436 50.6216 38.5436 51.1545 38.7212L55.4174 34.4583C53.4635 33.7478 51.5097 33.3926 49.3783 33.3926C39.4316 33.3926 31.261 41.5631 31.261 51.5098C31.261 61.4565 39.2539 69.627 49.3783 69.627C59.325 69.627 67.4955 61.4565 67.4955 51.5098C67.4955 49.3784 67.1403 47.4246 66.4298 45.4707L62.1669 49.7336C62.3445 50.2665 62.3445 50.9769 62.3445 51.5098C62.3445 58.6146 56.4831 64.4761 49.3783 64.4761C42.2735 64.4761 36.412 58.6146 36.412 51.5098C36.412 44.405 42.2735 38.5436 49.3783 38.5436Z" fill="#E7D5E9"/>
<path d="M68.0284 24.3338C68.206 22.5576 73.7122 17.229 74.7779 17.0514C75.8437 16.8738 76.0213 21.4919 75.4884 22.2024C74.7779 22.7352 67.8508 26.11 68.0284 24.3338Z" fill="white"/>
<path d="M67.8507 33.5701L54.8844 45.6483C54.7068 45.8259 54.3515 45.8259 54.1739 45.6483C53.9963 45.4707 53.9963 45.1154 54.1739 44.9378L66.4297 31.9716C66.7849 31.6163 67.4954 31.4387 67.8507 31.9716C68.2059 32.5044 68.2059 33.0373 67.8507 33.5701C67.8507 33.3925 67.8507 33.3925 67.8507 33.5701Z" fill="white"/>
<path d="M43.6944 51.6873C41.2077 50.9768 45.293 45.293 49.2006 45.293C53.1083 45.4706 55.595 50.0887 51.5097 49.3782C47.7797 48.8454 46.3587 52.3978 43.6944 51.6873Z" fill="white"/>
<path d="M69.2716 70.6928C67.3178 72.8242 65.0087 74.4228 62.522 75.8438C60.0354 77.2647 57.3711 78.1528 54.5291 78.6857C51.6872 79.2186 48.8453 79.3962 46.0034 79.0409C44.5824 78.8633 43.1615 78.5081 41.7405 78.3305C40.3196 77.9752 39.0762 77.4424 37.6553 76.9095C37.1224 76.7319 36.9448 76.199 37.1224 75.8438C37.3 75.3109 37.8329 75.1333 38.1881 75.3109H38.3657C40.8524 76.0214 43.5167 76.7319 46.181 76.9095C48.8453 77.2647 51.5096 77.0871 53.9963 76.5543C56.6606 76.199 59.1473 75.3109 61.4563 74.0676C63.7654 73.0019 66.0744 71.4033 68.0283 69.8047C68.3835 69.4495 68.9164 69.6271 69.094 69.8047C69.6268 69.9823 69.6268 70.5152 69.2716 70.6928Z" fill="white"/>
<g opacity="0.45">
<path opacity="0.45" d="M34.1028 58.437C33.3923 56.8384 32.8595 55.0622 32.6819 53.286C32.5042 51.5098 32.5042 49.7336 32.8595 47.9574C33.2147 46.1812 33.7476 44.5827 34.6357 42.9841C34.9909 42.096 35.5238 41.3855 36.0566 40.675C36.5895 39.9646 37.1224 39.2541 37.8328 38.7212C38.0105 38.5436 38.3657 38.366 38.5433 38.7212C38.7209 38.8988 38.8986 39.2541 38.7209 39.4317C37.6552 40.675 36.7671 42.096 36.0566 43.5169C35.3462 44.9379 34.8133 46.5365 34.4581 48.1351C34.1028 49.7336 34.1028 51.3322 34.1028 53.1084C34.2804 54.707 34.6357 56.4832 35.1685 57.9042C35.3462 58.0818 35.1685 58.437 34.8133 58.6146C34.4581 58.7923 34.2804 58.6146 34.1028 58.437Z" fill="white"/>
</g>
<path opacity="0.45" d="M54.3516 66.2524C54.3516 66.2524 59.5026 64.8315 61.2788 60.9238" stroke="white" stroke-width="1.46927" stroke-miterlimit="10" stroke-linecap="round" stroke-linejoin="round"/>
<path d="M34.6359 29.8401C34.6359 29.8401 41.7407 23.6234 51.1545 25.5772" stroke="white" stroke-width="2.11758" stroke-miterlimit="10" stroke-linecap="round" stroke-linejoin="round"/>
</svg>
