<svg width="393" height="108" viewBox="0 0 393 108" fill="none" xmlns="http://www.w3.org/2000/svg">
<path d="M1.00002 21L12.5806 9.79852C18.371 4.19768 27.4225 3.77535 33.7092 8.81269L47.6509 19.9836C53.4979 24.6686 61.8132 24.6686 67.6603 19.9836L82.5957 8.01642C88.4428 3.33136 96.7581 3.33136 102.605 8.01642L117.541 19.9836C123.388 24.6686 131.703 24.6686 137.55 19.9836L152.485 8.01642C158.332 3.33136 166.648 3.33136 172.495 8.01642L187.43 19.9836C193.277 24.6686 201.593 24.6686 207.44 19.9836L222.375 8.01642C228.222 3.33136 236.537 3.33136 242.385 8.01641L257.32 19.9836C263.167 24.6686 271.482 24.6686 277.329 19.9836L292.265 8.01642C298.112 3.33136 306.427 3.33136 312.274 8.01642L327.21 19.9836C333.057 24.6686 341.372 24.6686 347.219 19.9836L361.411 8.61232C367.589 3.66159 376.46 3.97426 382.275 9.34774L392 18.3352" stroke="url(#paint0_linear)"/>
<path d="M1.00002 41L12.5806 29.7985C18.371 24.1977 27.4225 23.7753 33.7092 28.8127L47.6509 39.9836C53.4979 44.6686 61.8132 44.6686 67.6603 39.9836L82.5957 28.0164C88.4428 23.3314 96.7581 23.3314 102.605 28.0164L117.541 39.9836C123.388 44.6686 131.703 44.6686 137.55 39.9836L152.485 28.0164C158.332 23.3314 166.648 23.3314 172.495 28.0164L187.43 39.9836C193.277 44.6686 201.593 44.6686 207.44 39.9836L222.375 28.0164C228.222 23.3314 236.537 23.3314 242.385 28.0164L257.32 39.9836C263.167 44.6686 271.482 44.6686 277.329 39.9836L292.265 28.0164C298.112 23.3314 306.427 23.3314 312.274 28.0164L327.21 39.9836C333.057 44.6686 341.372 44.6686 347.219 39.9836L361.411 28.6123C367.589 23.6616 376.46 23.9743 382.275 29.3477L392 38.3352" stroke="url(#paint1_linear)"/>
<path d="M1.00002 61L12.5806 49.7985C18.371 44.1977 27.4225 43.7753 33.7092 48.8127L47.6509 59.9836C53.4979 64.6686 61.8132 64.6686 67.6603 59.9836L82.5957 48.0164C88.4428 43.3314 96.7581 43.3314 102.605 48.0164L117.541 59.9836C123.388 64.6686 131.703 64.6686 137.55 59.9836L152.485 48.0164C158.332 43.3314 166.648 43.3314 172.495 48.0164L187.43 59.9836C193.277 64.6686 201.593 64.6686 207.44 59.9836L222.375 48.0164C228.222 43.3314 236.537 43.3314 242.385 48.0164L257.32 59.9836C263.167 64.6686 271.482 64.6686 277.329 59.9836L292.265 48.0164C298.112 43.3314 306.427 43.3314 312.274 48.0164L327.21 59.9836C333.057 64.6686 341.372 64.6686 347.219 59.9836L361.411 48.6123C367.589 43.6616 376.46 43.9743 382.275 49.3477L392 58.3352" stroke="url(#paint2_linear)"/>
<path d="M1.00002 81L12.5806 69.7985C18.371 64.1977 27.4225 63.7753 33.7092 68.8127L47.6509 79.9836C53.4979 84.6686 61.8132 84.6686 67.6603 79.9836L82.5957 68.0164C88.4428 63.3314 96.7581 63.3314 102.605 68.0164L117.541 79.9836C123.388 84.6686 131.703 84.6686 137.55 79.9836L152.485 68.0164C158.332 63.3314 166.648 63.3314 172.495 68.0164L187.43 79.9836C193.277 84.6686 201.593 84.6686 207.44 79.9836L222.375 68.0164C228.222 63.3314 236.537 63.3314 242.385 68.0164L257.32 79.9836C263.167 84.6686 271.482 84.6686 277.329 79.9836L292.265 68.0164C298.112 63.3314 306.427 63.3314 312.274 68.0164L327.21 79.9836C333.057 84.6686 341.372 84.6686 347.219 79.9836L361.411 68.6123C367.589 63.6616 376.46 63.9743 382.275 69.3477L392 78.3352" stroke="url(#paint3_linear)"/>
<path d="M1.00002 101L12.5806 89.7985C18.371 84.1977 27.4225 83.7753 33.7092 88.8127L47.6509 99.9836C53.4979 104.669 61.8132 104.669 67.6603 99.9836L82.5957 88.0164C88.4428 83.3314 96.7581 83.3314 102.605 88.0164L117.541 99.9836C123.388 104.669 131.703 104.669 137.55 99.9836L152.485 88.0164C158.332 83.3314 166.648 83.3314 172.495 88.0164L187.43 99.9836C193.277 104.669 201.593 104.669 207.44 99.9836L222.375 88.0164C228.222 83.3314 236.537 83.3314 242.385 88.0164L257.32 99.9836C263.167 104.669 271.482 104.669 277.329 99.9836L292.265 88.0164C298.112 83.3314 306.427 83.3314 312.274 88.0164L327.21 99.9836C333.057 104.669 341.372 104.669 347.219 99.9836L361.411 88.6123C367.589 83.6616 376.46 83.9743 382.275 89.3477L392 98.3352" stroke="url(#paint4_linear)"/>
<defs>
<linearGradient id="paint0_linear" x1="197.435" y1="0" x2="197.435" y2="28" gradientUnits="userSpaceOnUse">
<stop offset="0.125831" stop-color="#6854E4"/>
<stop offset="1" stop-color="#4AC6E8"/>
</linearGradient>
<linearGradient id="paint1_linear" x1="197.435" y1="20" x2="197.435" y2="48" gradientUnits="userSpaceOnUse">
<stop offset="0.125831" stop-color="#6854E4"/>
<stop offset="1" stop-color="#4AC6E8"/>
</linearGradient>
<linearGradient id="paint2_linear" x1="197.435" y1="40" x2="197.435" y2="68" gradientUnits="userSpaceOnUse">
<stop offset="0.125831" stop-color="#6854E4"/>
<stop offset="1" stop-color="#4AC6E8"/>
</linearGradient>
<linearGradient id="paint3_linear" x1="197.435" y1="60" x2="197.435" y2="88" gradientUnits="userSpaceOnUse">
<stop offset="0.125831" stop-color="#6854E4"/>
<stop offset="1" stop-color="#4AC6E8"/>
</linearGradient>
<linearGradient id="paint4_linear" x1="197.435" y1="80" x2="197.435" y2="108" gradientUnits="userSpaceOnUse">
<stop offset="0.125831" stop-color="#6854E4"/>
<stop offset="1" stop-color="#4AC6E8"/>
</linearGradient>
</defs>
</svg>
